<svg width="24" height="24" viewBox="0 0 24 24" fill="none" xmlns="http://www.w3.org/2000/svg">
<rect x="0.5" y="0.5" width="23" height="23" rx="11.5" stroke="white"/>
<path fill-rule="evenodd" clip-rule="evenodd" d="M6.75 8.75C6.75 7.64543 7.64543 6.75 8.75 6.75H15.25C16.3546 6.75 17.25 7.64543 17.25 8.75V15.25C17.25 16.3546 16.3546 17.25 15.25 17.25H8.75C7.64543 17.25 6.75 16.3546 6.75 15.25V8.75ZM13.8499 12.0002C13.8499 10.9785 13.0219 10.1497 12.0002 10.1496C10.9785 10.1496 10.1497 10.9785 10.1497 12.0002C10.1498 13.0218 10.9786 13.8498 12.0002 13.8498C13.0218 13.8497 13.8497 13.0218 13.8499 12.0002ZM15.05 12.0002C15.0499 13.6845 13.6846 15.0499 12.0002 15.05C10.3158 15.05 8.95055 13.6846 8.95044 12.0002C8.95044 10.3157 10.3158 8.95039 12.0002 8.95039C13.6846 8.9505 15.05 10.3158 15.05 12.0002ZM15.15 9.55C15.5366 9.55 15.85 9.2366 15.85 8.85C15.85 8.4634 15.5366 8.15 15.15 8.15C14.7634 8.15 14.45 8.4634 14.45 8.85C14.45 9.2366 14.7634 9.55 15.15 9.55Z" fill="white"/>
</svg>
