<svg width="24" height="24" viewBox="0 0 24 24" fill="none" xmlns="http://www.w3.org/2000/svg">
<rect x="0.5" y="0.5" width="23" height="23" rx="11.5" stroke="white"/>
<path d="M16.7619 16.4966C16.1868 16.4829 15.6254 16.4829 15.0503 16.4966C14.9271 16.4966 14.8997 16.4692 14.8997 16.346C14.8997 15.3327 14.8997 14.3057 14.8997 13.2925C14.8997 13.0597 14.886 12.8269 14.8175 12.6078C14.6121 11.8958 13.7906 11.6356 13.2018 12.1149C12.8868 12.3613 12.7636 12.7037 12.7636 13.1144C12.7636 14.0729 12.7636 15.0314 12.7636 15.9899C12.7636 16.1132 12.7499 16.2364 12.7636 16.3733C12.7773 16.4829 12.7225 16.5103 12.6267 16.4966C12.0379 16.4966 11.4628 16.4966 10.874 16.4966C10.7644 16.4966 10.7371 16.4692 10.7371 16.3596C10.7508 15.497 10.7508 14.6343 10.7508 13.758C10.7508 12.69 10.7508 11.6219 10.7371 10.5676C10.7371 10.4443 10.7644 10.417 10.874 10.417C11.4628 10.417 12.0379 10.417 12.6267 10.417C12.7362 10.417 12.7636 10.4443 12.7636 10.5539C12.7636 10.773 12.7636 10.9921 12.7636 11.2522C12.8047 11.2111 12.8184 11.1974 12.8321 11.1838C13.3661 10.4033 14.1192 10.1842 15.0092 10.3211C16.0362 10.4854 16.6935 11.1974 16.8578 12.2929C16.8989 12.553 16.9125 12.8132 16.9125 13.0734C16.9125 14.1688 16.9125 15.2505 16.9125 16.346C16.9125 16.4555 16.8852 16.4966 16.7619 16.4966Z" fill="white"/>
<path d="M9.64127 13.4571C9.64127 14.4156 9.64127 15.3741 9.64127 16.3326C9.64127 16.4558 9.61389 16.4969 9.49065 16.4969C8.91555 16.4832 8.34045 16.4969 7.76535 16.4969C7.6558 16.4969 7.62842 16.4695 7.62842 16.3599C7.62842 14.4292 7.62842 12.4849 7.62842 10.5542C7.62842 10.4583 7.6558 10.4172 7.76535 10.4172C8.35414 10.4172 8.94293 10.4172 9.53173 10.4172C9.65496 10.4172 9.66866 10.4583 9.66866 10.5679C9.64127 11.5264 9.64127 12.4849 9.64127 13.4571Z" fill="white"/>
<path d="M9.73848 8.82875C9.60155 9.37647 9.04014 9.69141 8.39658 9.58186C7.71193 9.47232 7.32853 8.80137 7.57501 8.14411C7.73932 7.73332 8.13641 7.48685 8.64305 7.50054C9.40985 7.48685 9.91649 8.10303 9.73848 8.82875Z" fill="white"/>
</svg>
