<svg width="24" height="24" viewBox="0 0 24 24" fill="none" xmlns="http://www.w3.org/2000/svg">
<rect x="0.5" y="0.5" width="23" height="23" rx="11.5" stroke="white"/>
<path d="M16.3604 9.74638C16.3604 9.84783 16.3604 9.94928 16.3604 10.0362C16.3604 13.0362 14.1501 16.5 10.1213 16.5C8.87631 16.5 7.72922 16.1232 6.75 15.4855C6.91787 15.5 7.09972 15.5145 7.26759 15.5145C8.28878 15.5145 9.24002 15.1522 9.99542 14.5435C9.03019 14.529 8.21883 13.8623 7.95304 12.9638C8.09293 12.9928 8.21883 13.0072 8.37271 13.0072C8.56855 13.0072 8.7644 12.9783 8.94625 12.9203C7.93905 12.7174 7.18366 11.8043 7.18366 10.7029C7.18366 10.6884 7.18366 10.6884 7.18366 10.6739C7.47742 10.8478 7.81315 10.9493 8.17687 10.9638C7.58933 10.558 7.19764 9.86232 7.19764 9.06522C7.19764 8.64493 7.30955 8.25362 7.49141 7.92029C8.56855 9.2971 10.1913 10.1957 12.0098 10.2971C11.9678 10.1377 11.9539 9.94928 11.9539 9.77536C11.9539 8.51449 12.9331 7.5 14.1501 7.5C14.7796 7.5 15.3532 7.77536 15.7448 8.21014C16.2484 8.1087 16.7101 7.92029 17.1437 7.65942C16.9759 8.19565 16.6261 8.63043 16.1785 8.92029C16.6261 8.86232 17.0458 8.74638 17.4375 8.55797C17.1577 9.02174 16.794 9.42754 16.3604 9.74638Z" fill="white"/>
</svg>
